<?xml version="1.0" encoding="UTF-8" standalone="no"?>
<svg
   xmlns:dc="http://purl.org/dc/elements/1.1/"
   xmlns:cc="http://creativecommons.org/ns#"
   xmlns:rdf="http://www.w3.org/1999/02/22-rdf-syntax-ns#"
   xmlns:svg="http://www.w3.org/2000/svg"
   xmlns="http://www.w3.org/2000/svg"
   height="10"
   width="10"
   viewBox="0 0 10 10"
   version="1.1"
   id="svg4">
  <metadata
     id="metadata10">
    <rdf:RDF>
      <cc:Work
         rdf:about="">
        <dc:format>image/svg+xml</dc:format>
        <dc:type
           rdf:resource="http://purl.org/dc/dcmitype/StillImage" />
        <dc:title></dc:title>
      </cc:Work>
    </rdf:RDF>
  </metadata>
  <defs
     id="defs8" />
  <path
     d="m 5,0 c 2.7620968,0 5,2.2379 5,5 0,2.7621 -2.2379032,5 -5,5 C 2.2379032,10 0,7.7621 0,5 0,2.2379 2.2379032,0 5,0 Z M 4.4173387,2.89516 5.9395161,4.35484 H 2.2580645 c -0.2681451,0 -0.483871,0.21572 -0.483871,0.48387 v 0.32258 c 0,0.26815 0.2157259,0.48387 0.483871,0.48387 H 5.9395161 L 4.4173387,7.10484 c -0.1955645,0.1875 -0.1995968,0.5 -0.00806,0.69153 l 0.2217742,0.21976 c 0.1895161,0.18952 0.4959677,0.18952 0.6834677,0 L 7.9899194,5.34274 c 0.1895161,-0.18951 0.1895161,-0.49597 0,-0.68347 L 5.3145161,1.98185 C 5.125,1.79234 4.8185484,1.79234 4.6310484,1.98185 L 4.4092742,2.20161 c -0.1915323,0.19355 -0.1875,0.50605 0.00806,0.69355 z"
     id="path2"
     style="fill:#ff0000;stroke-width:0.02016129" />
</svg>
