<?xml version="1.0" encoding="UTF-8" standalone="no"?>
<svg
   xmlns:dc="http://purl.org/dc/elements/1.1/"
   xmlns:cc="http://creativecommons.org/ns#"
   xmlns:rdf="http://www.w3.org/1999/02/22-rdf-syntax-ns#"
   xmlns:svg="http://www.w3.org/2000/svg"
   xmlns="http://www.w3.org/2000/svg"
   height="10"
   width="9.9999943"
   viewBox="0 0 9.9999943 10"
   version="1.1"
   id="svg4">
  <metadata
     id="metadata10">
    <rdf:RDF>
      <cc:Work
         rdf:about="">
        <dc:format>image/svg+xml</dc:format>
        <dc:type
           rdf:resource="http://purl.org/dc/dcmitype/StillImage" />
        <dc:title></dc:title>
      </cc:Work>
    </rdf:RDF>
  </metadata>
  <defs
     id="defs8" />
  <path
     d="M 0,5 C -1.8384685e-6,2.2379 2.2378997,0 5,0 7.7621005,0 9.9999992,2.23791 9.9999944,5 9.9999963,7.7621 7.7620947,10 4.9999945,10 2.2378942,10 -5.218439e-6,7.76209 0,5 Z m 2.8951592,0.58266 1.4596746,-1.52218 5e-7,3.68145 c 1.9e-6,0.26815 0.2157231,0.48388 0.4838726,0.48388 H 5.161288 c 0.2681495,0 0.4838724,-0.21573 0.4838705,-0.48387 l -5e-7,-3.68146 1.4596792,1.52218 c 0.1875035,0.19557 0.5000002,0.1996 0.6915336,0.008 l 0.22006,-0.22147 C 8.2059489,5.17967 8.2059517,4.87322 8.0164341,4.68573 L 5.3430401,2.01032 C 5.1535314,1.82081 4.8470714,1.82081 4.6595745,2.01033 L 1.9824557,4.68603 C 1.7929427,4.87555 1.7929469,5.182 1.9824525,5.3695 l 0.2197688,0.22177 c 0.1935492,0.19153 0.5060472,0.1875 0.6935467,-0.008 z"
     id="path2"
     style="fill:#ff0000;stroke-width:0.02016129" />
</svg>
