<?xml version="1.0" encoding="UTF-8" standalone="no"?>
<svg
   xmlns:dc="http://purl.org/dc/elements/1.1/"
   xmlns:cc="http://creativecommons.org/ns#"
   xmlns:rdf="http://www.w3.org/1999/02/22-rdf-syntax-ns#"
   xmlns:svg="http://www.w3.org/2000/svg"
   xmlns="http://www.w3.org/2000/svg"
   height="10.00071"
   width="10.000715"
   viewBox="0 0 10.000715 10.00071"
   version="1.1"
   id="svg4">
  <metadata
     id="metadata10">
    <rdf:RDF>
      <cc:Work
         rdf:about="">
        <dc:format>image/svg+xml</dc:format>
        <dc:type
           rdf:resource="http://purl.org/dc/dcmitype/StillImage" />
        <dc:title></dc:title>
      </cc:Work>
    </rdf:RDF>
  </metadata>
  <defs
     id="defs8" />
  <path
     d="m 1.4648239,1.464825 c 1.9530974,-1.9531 5.1179682,-1.9531 7.0710678,0 1.9531003,1.9531 1.9530973,5.11797 0,7.07106 -1.9530974,1.9531 -5.1179682,1.9531 -7.0710678,0 -1.95309966,-1.9531 -1.95309739,-5.11797 0,-7.07106 z m 1.6351835,2.45919 2.1084916,-0.0442 -2.6031794,2.60318 c -0.1896072,0.18961 -0.1896114,0.49469 -7e-7,0.6843 l 0.2280985,0.2281 c 0.1896107,0.18961 0.494689,0.18961 0.6842962,0 L 6.120893,4.792215 6.076701,6.900705 c -0.0057,0.27087 0.2124171,0.49469 0.4832863,0.49469 l 0.3122118,-10e-4 c 0.268019,0 0.484713,-0.21669 0.4832846,-0.48328 l 0.00142,-3.78217 C 7.356908,2.860935 7.140208,2.644235 6.8736174,2.645665 l -3.7850177,-0.001 c -0.2680119,0 -0.4847059,0.2167 -0.4832846,0.48328 l -0.00142,0.31222 c 0.00143,0.27229 0.2252489,0.49041 0.4961132,0.48471 z"
     id="path2"
     style="fill:#ff0000;stroke-width:0.02016129" />
</svg>
