<?xml version="1.0" encoding="UTF-8" standalone="no"?>
<svg
   xmlns:dc="http://purl.org/dc/elements/1.1/"
   xmlns:cc="http://creativecommons.org/ns#"
   xmlns:rdf="http://www.w3.org/1999/02/22-rdf-syntax-ns#"
   xmlns:svg="http://www.w3.org/2000/svg"
   xmlns="http://www.w3.org/2000/svg"
   height="10.00072"
   width="10.000714"
   viewBox="0 0 10.000714 10.00072"
   version="1.1"
   id="svg4">
  <metadata
     id="metadata10">
    <rdf:RDF>
      <cc:Work
         rdf:about="">
        <dc:format>image/svg+xml</dc:format>
        <dc:type
           rdf:resource="http://purl.org/dc/dcmitype/StillImage" />
        <dc:title></dc:title>
      </cc:Work>
    </rdf:RDF>
  </metadata>
  <defs
     id="defs8" />
  <path
     d="m 1.4648253,8.53589 c -1.95310096,-1.9531 -1.95309985,-5.11797 0,-7.07107 1.9531,-1.9531 5.1179746,-1.95309 7.0710638,1e-5 1.9531009,1.9531 1.9530999,5.11797 10e-8,7.07107 -1.9530999,1.9531 -5.1179751,1.95309 -7.0710639,-10e-6 z M 3.9240148,6.90071 3.8798168,4.79222 6.4829954,7.3954 c 0.1896121,0.18961 0.4946941,0.18961 0.6843045,0 L 7.3953991,7.1673 c 0.1896104,-0.18961 0.1896054,-0.49469 4e-7,-0.68429 L 4.7922138,3.87982 6.9007067,3.92402 c 0.2708738,0.006 0.494692,-0.21242 0.4946449,-0.48334 l -9.97e-4,-0.3122 C 7.3943533,2.86046 7.1776624,2.64376 6.9110777,2.64519 l -3.7821755,-10e-4 c -0.2680067,0 -0.4847067,0.2167 -0.4832761,0.48329 l -10e-4,3.78501 c 5e-6,0.26802 0.2167008,0.48471 0.483284,0.48329 l 0.3122151,10e-4 C 3.7124173,7.39578 3.9305371,7.17153 3.9248799,6.90071 Z"
     id="path2"
     style="fill:#ff0000;stroke-width:0.02016129" />
</svg>
