<?xml version="1.0" encoding="UTF-8" standalone="no"?>
<svg
   xmlns:dc="http://purl.org/dc/elements/1.1/"
   xmlns:cc="http://creativecommons.org/ns#"
   xmlns:rdf="http://www.w3.org/1999/02/22-rdf-syntax-ns#"
   xmlns:svg="http://www.w3.org/2000/svg"
   xmlns="http://www.w3.org/2000/svg"
   height="10.00072"
   width="10.000717"
   viewBox="0 0 10.000717 10.00072"
   version="1.1"
   id="svg4">
  <metadata
     id="metadata10">
    <rdf:RDF>
      <cc:Work
         rdf:about="">
        <dc:format>image/svg+xml</dc:format>
        <dc:type
           rdf:resource="http://purl.org/dc/dcmitype/StillImage" />
        <dc:title></dc:title>
      </cc:Work>
    </rdf:RDF>
  </metadata>
  <defs
     id="defs8" />
  <path
     d="m 8.5358901,1.46483 c 1.9531119,1.9531 1.9530959,5.11797 -4.1e-6,7.07107 -1.9530998,1.9531 -5.1179686,1.95309 -7.0710588,-10e-6 -1.95311149,-1.9531 -1.95309576,-5.11797 4.1e-6,-7.07107 1.9530999,-1.9531 5.1179682,-1.95309 7.0710588,1e-5 z M 6.076701,3.10001 6.120898,5.2085 3.5177158,2.60531 c -0.1896066,-0.1896 -0.4946887,-0.1896 -0.684299,1e-5 l -0.2280994,0.2281 c -0.1896103,0.18961 -0.1896059,0.49469 1.4e-6,0.68429 L 5.2085002,6.1209 3.1000099,6.0767 C 2.8291375,6.0707 2.6053177,6.28912 2.6053616,6.56004 l 9.973e-4,0.31219 c 0,0.26802 0.2166817,0.48473 0.483276,0.4833 l 3.7821663,0.001 c 0.268009,-1e-5 0.484709,-0.21671 0.4832796,-0.4833 L 7.356079,3.08822 C 7.3560798,2.8202 7.1393798,2.60351 6.8727997,2.60493 L 6.5605918,2.60393 C 6.2882904,2.60493 6.0701791,2.82918 6.0758332,3.1 Z"
     id="path2"
     style="fill:#ff0000;stroke-width:0.02016129" />
</svg>
