<?xml version="1.0" encoding="UTF-8" standalone="no"?>
<svg
   xmlns:dc="http://purl.org/dc/elements/1.1/"
   xmlns:cc="http://creativecommons.org/ns#"
   xmlns:rdf="http://www.w3.org/1999/02/22-rdf-syntax-ns#"
   xmlns:svg="http://www.w3.org/2000/svg"
   xmlns="http://www.w3.org/2000/svg"
   height="10.000717"
   width="10.000722"
   viewBox="0 0 10.000722 10.000717"
   version="1.1"
   id="svg4">
  <metadata
     id="metadata10">
    <rdf:RDF>
      <cc:Work
         rdf:about="">
        <dc:format>image/svg+xml</dc:format>
        <dc:type
           rdf:resource="http://purl.org/dc/dcmitype/StillImage" />
        <dc:title></dc:title>
      </cc:Work>
    </rdf:RDF>
  </metadata>
  <defs
     id="defs8" />
  <path
     d="m 8.5358938,8.5358888 c -1.9531005,1.9531102 -5.1179763,1.9531002 -7.071076,0 -1.95309964,-1.9531 -1.95308453,-5.11797 1.01e-5,-7.07106 1.9531005,-1.95311005 5.1179764,-1.95310005 7.071076,0 1.9531001,1.9531 1.9530841,5.11797 -1.01e-5,7.07106 z m -1.6351825,-2.45919 -2.1084937,0.0442 2.6031864,-2.60318 c 0.189604,-0.18961 0.1896079,-0.49469 -2.6e-6,-0.6843 l -0.2280988,-0.2281 c -0.1896106,-0.18961 -0.4946901,-0.18961 -0.6842927,0 l -2.6031878,2.60318 0.044197,-2.10849 c 0.006,-0.27087 -0.2124173,-0.49469 -0.4833428,-0.49464 l -0.3121973,10e-4 c -0.2680216,0 -0.4847241,0.21668 -0.4832906,0.48327 l -10e-4,3.78217 c 5e-7,0.26801 0.2167004,0.48471 0.4832932,0.48328 l 3.7850077,0.001 c 0.2680234,0 0.4847092,-0.2167 0.483294,-0.48328 l 0.001,-0.31221 c -0.001,-0.2723 -0.2252504,-0.49041 -0.4960707,-0.48476 z"
     id="path2"
     style="fill:#ff0000;stroke-width:0.02016129" />
</svg>
